<svg width="226" height="77" viewBox="0 0 226 77" fill="none" xmlns="http://www.w3.org/2000/svg">
<path d="M2 24.5909V15.4545H41.3409V24.5909H27.2273V62H16.1364V24.5909H2ZM85.442 38.7273C85.442 43.8485 84.4572 48.1894 82.4875 51.75C80.5178 55.3106 77.8511 58.0152 74.4875 59.8636C71.139 61.7121 67.3814 62.6364 63.2148 62.6364C59.033 62.6364 55.2678 61.7045 51.9193 59.8409C48.5708 57.9773 45.9117 55.2727 43.942 51.7273C41.9875 48.1667 41.0102 43.8333 41.0102 38.7273C41.0102 33.6061 41.9875 29.2652 43.942 25.7045C45.9117 22.1439 48.5708 19.4394 51.9193 17.5909C55.2678 15.7424 59.033 14.8182 63.2148 14.8182C67.3814 14.8182 71.139 15.7424 74.4875 17.5909C77.8511 19.4394 80.5178 22.1439 82.4875 25.7045C84.4572 29.2652 85.442 33.6061 85.442 38.7273ZM73.942 38.7273C73.942 35.697 73.5102 33.1364 72.6466 31.0455C71.7981 28.9545 70.5708 27.3712 68.9648 26.2955C67.3739 25.2197 65.4572 24.6818 63.2148 24.6818C60.9875 24.6818 59.0708 25.2197 57.4648 26.2955C55.8587 27.3712 54.6239 28.9545 53.7602 31.0455C52.9117 33.1364 52.4875 35.697 52.4875 38.7273C52.4875 41.7576 52.9117 44.3182 53.7602 46.4091C54.6239 48.5 55.8587 50.0833 57.4648 51.1591C59.0708 52.2348 60.9875 52.7727 63.2148 52.7727C65.4572 52.7727 67.3739 52.2348 68.9648 51.1591C70.5708 50.0833 71.7981 48.5 72.6466 46.4091C73.5102 44.3182 73.942 41.7576 73.942 38.7273ZM116.565 62H99.3602V15.4545H116.542C121.284 15.4545 125.368 16.3864 128.792 18.25C132.231 20.0985 134.883 22.7651 136.747 26.25C138.61 29.7197 139.542 33.8712 139.542 38.7045C139.542 43.553 138.61 47.7197 136.747 51.2045C134.898 54.6894 132.254 57.3636 128.815 59.2273C125.375 61.0758 121.292 62 116.565 62ZM110.61 52.4091H116.133C118.739 52.4091 120.944 51.9697 122.747 51.0909C124.565 50.197 125.936 48.75 126.86 46.75C127.8 44.7348 128.269 42.053 128.269 38.7045C128.269 35.3561 127.8 32.6894 126.86 30.7045C125.921 28.7045 124.534 27.2652 122.701 26.3864C120.883 25.4924 118.641 25.0455 115.974 25.0455H110.61V52.4091ZM171.069 15.4545H182.297V45.4773C182.297 48.947 181.471 51.9697 179.819 54.5455C178.168 57.1061 175.865 59.0909 172.91 60.5C169.956 61.8939 166.524 62.5909 162.615 62.5909C158.66 62.5909 155.206 61.8939 152.251 60.5C149.297 59.0909 147.001 57.1061 145.365 54.5455C143.728 51.9697 142.91 48.947 142.91 45.4773V15.4545H154.16V44.5C154.16 46.1061 154.509 47.5379 155.206 48.7955C155.918 50.053 156.91 51.0379 158.183 51.75C159.456 52.4621 160.933 52.8182 162.615 52.8182C164.297 52.8182 165.766 52.4621 167.024 51.75C168.297 51.0379 169.289 50.053 170.001 48.7955C170.713 47.5379 171.069 46.1061 171.069 44.5V15.4545ZM186.148 62V15.4545H218.602V24.5909H197.398V34.1364H216.943V43.2955H197.398V52.8636H218.602V62H186.148Z" fill="black"/>
<line x1="90" y1="41" x2="226" y2="41" stroke="white" stroke-width="6"/>
</svg>
